<svg height='300px' width='300px'  fill="#337ab7" xmlns="http://www.w3.org/2000/svg" xmlns:xlink="http://www.w3.org/1999/xlink" version="1.1" x="0px" y="0px" viewBox="0 0 100 100" style="enable-background:new 0 0 100 100;" xml:space="preserve"><path d="M50.2,22.7c-8,0-14.6,6.5-14.6,14.6c0,2.1,1.7,3.7,3.7,3.7s3.7-1.7,3.7-3.7c0-3.9,3.2-7.1,7.1-7.1  c4.1,0,7.1,2.9,7.1,6.8c0,0,0,0.1,0,0.3c0,2.2-0.6,7.4-7.7,8.5c-1.8,0.3-3.2,1.8-3.2,3.7v10.1c0,2.1,1.7,3.7,3.7,3.7  s3.7-1.7,3.7-3.7v-7.1c9.4-2.9,10.9-11,10.9-15.5C64.8,29,58.2,22.7,50.2,22.7z"></path><path d="M50.2,67.8c-2.7,0-4.8,2.2-4.8,4.8s2.2,4.8,4.8,4.8s4.8-2.2,4.8-4.8S52.8,67.8,50.2,67.8z"></path><path d="M50.2,0.8C23.3,0.8,1.4,22.7,1.4,49.6c0,26.9,21.9,48.8,48.8,48.8C77.1,98.4,99,76.5,99,49.6  C99,22.7,77.1,0.8,50.2,0.8z M50.2,91C27.4,91,8.8,72.4,8.8,49.6c0-22.8,18.6-41.4,41.4-41.4c22.8,0,41.4,18.6,41.4,41.4  C91.5,72.4,73,91,50.2,91z"></path></svg>